# This file uses centimeters as units for non-parametric coordinates.

mtllib esquina.mtl
g default
v 40.102478 -1.536471 0.889955
v 41.839893 -1.536471 0.889955
v 40.102478 11.787034 0.889955
v 41.839893 11.787034 0.889955
v 40.102478 11.787034 -0.889955
v 41.839893 11.787034 -0.889955
v 40.102478 -1.536471 -0.889955
v 41.839893 -1.536471 -0.889955
v 25.108862 -1.536471 0.889955
v 26.846277 -1.536471 0.889955
v 25.108862 11.787034 0.889955
v 26.846277 11.787034 0.889955
v 25.108862 11.787034 -0.889955
v 26.846277 11.787034 -0.889955
v 25.108862 -1.536471 -0.889955
v 26.846277 -1.536471 -0.889955
v 41.890549 2.348583 1.596538
v 41.898239 4.210246 1.596538
v 25.083242 2.529347 1.596538
v 25.090933 4.391010 1.596538
v 25.083242 2.529347 0.886169
v 25.090933 4.391010 0.886169
v 41.890549 2.348583 0.886169
v 41.898239 4.210246 0.886169
v 41.890549 8.547061 1.596538
v 41.898239 10.408723 1.596538
v 25.083242 8.727824 1.596538
v 25.090933 10.589487 1.596538
v 25.083242 8.727824 0.886169
v 25.090933 10.589487 0.886169
v 41.890549 8.547061 0.886169
v 41.898239 10.408723 0.886169
v 40.066582 -1.536471 -15.214566
v 40.066582 -1.536471 -13.477151
v 40.066582 11.787034 -15.214566
v 40.066582 11.787034 -13.477151
v 41.846489 11.787034 -15.214566
v 41.846489 11.787034 -13.477151
v 41.846489 -1.536471 -15.214566
v 41.846489 -1.536471 -13.477151
v 41.890549 5.202244 1.596538
v 41.898239 7.063906 1.596538
v 25.083242 5.383007 1.596538
v 25.090933 7.244670 1.596538
v 25.083242 5.383007 0.886169
v 25.090933 7.244670 0.886169
v 41.890549 5.202244 0.886169
v 41.898239 7.063906 0.886169
v 41.841297 8.547061 1.575675
v 41.841297 10.408723 1.583364
v 41.841297 8.727824 -15.231633
v 41.841297 10.589487 -15.223945
v 42.551666 8.727824 -15.231633
v 42.551666 10.589487 -15.223945
v 42.551666 8.547061 1.575675
v 42.551666 10.408723 1.583364
v 41.841297 2.348583 1.575675
v 41.841297 4.210246 1.583364
v 41.841297 2.529347 -15.231633
v 41.841297 4.391010 -15.223945
v 42.551666 2.529347 -15.231633
v 42.551666 4.391010 -15.223945
v 42.551666 2.348583 1.575675
v 42.551666 4.210246 1.583364
v 41.841297 5.202244 1.575675
v 41.841297 7.063906 1.583364
v 41.841297 5.383007 -15.231633
v 41.841297 7.244670 -15.223945
v 42.551666 5.383007 -15.231633
v 42.551666 7.244670 -15.223945
v 42.551666 5.202244 1.575675
v 42.551666 7.063906 1.583364
vt 0.248007 0.214451
vt 0.332845 0.214308
vt 0.333922 0.849362
vt 0.249084 0.849506
vt 0.039356 0.208126
vt 0.124186 0.206990
vt 0.132696 0.841988
vt 0.047865 0.843125
vt 0.119853 0.894953
vt 0.202664 0.895453
vt 0.202152 0.980289
vt 0.119341 0.979789
vt 0.035938 0.894953
vt 0.118749 0.895453
vt 0.118236 0.980289
vt 0.035425 0.979789
vt 0.353561 0.213193
vt 0.436366 0.214340
vt 0.427565 0.849335
vt 0.344760 0.848187
vt 0.152786 0.214843
vt 0.235598 0.214832
vt 0.235680 0.849888
vt 0.152867 0.849898
vt 0.353561 0.213193
vt 0.436366 0.214340
vt 0.427565 0.849335
vt 0.344760 0.848187
vt 0.119853 0.894953
vt 0.202664 0.895453
vt 0.202152 0.980289
vt 0.119341 0.979789
vt 0.152786 0.214843
vt 0.235598 0.214832
vt 0.235680 0.849888
vt 0.152867 0.849898
vt 0.035938 0.894953
vt 0.118749 0.895453
vt 0.118236 0.980289
vt 0.035425 0.979789
vt 0.248007 0.214451
vt 0.332845 0.214308
vt 0.333922 0.849362
vt 0.249084 0.849506
vt 0.039356 0.208126
vt 0.124186 0.206990
vt 0.132696 0.841988
vt 0.047865 0.843125
vt 0.828586 0.028258
vt 0.881729 0.027376
vt 0.894901 0.986964
vt 0.841757 0.987847
vt 0.671452 0.933689
vt 0.722026 0.917341
vt 0.728263 0.936638
vt 0.677690 0.952986
vt 0.905227 0.028994
vt 0.958374 0.028430
vt 0.971310 0.988021
vt 0.918163 0.988585
vt 0.731144 0.933689
vt 0.781717 0.917341
vt 0.787955 0.936638
vt 0.737381 0.952986
vt 0.784321 0.019361
vt 0.804595 0.018880
vt 0.827380 0.978288
vt 0.807106 0.978770
vt 0.758986 0.030185
vt 0.779260 0.029703
vt 0.802045 0.989111
vt 0.781771 0.989593
vt 0.828586 0.028258
vt 0.881729 0.027376
vt 0.894901 0.986964
vt 0.841757 0.987847
vt 0.671452 0.933689
vt 0.722026 0.917341
vt 0.728263 0.936638
vt 0.677690 0.952986
vt 0.905227 0.028994
vt 0.958374 0.028430
vt 0.971310 0.988021
vt 0.918163 0.988585
vt 0.731144 0.933689
vt 0.781717 0.917341
vt 0.787955 0.936638
vt 0.737381 0.952986
vt 0.784321 0.019361
vt 0.804595 0.018880
vt 0.827380 0.978288
vt 0.807106 0.978770
vt 0.758986 0.030185
vt 0.779260 0.029703
vt 0.802045 0.989111
vt 0.781771 0.989593
vt 0.353561 0.213193
vt 0.436366 0.214340
vt 0.427565 0.849335
vt 0.344760 0.848187
vt 0.119853 0.894953
vt 0.202664 0.895453
vt 0.202152 0.980289
vt 0.119341 0.979789
vt 0.152786 0.214843
vt 0.235598 0.214832
vt 0.235680 0.849888
vt 0.152867 0.849898
vt 0.035938 0.894953
vt 0.118749 0.895453
vt 0.118236 0.980289
vt 0.035425 0.979789
vt 0.248007 0.214451
vt 0.332845 0.214308
vt 0.333922 0.849362
vt 0.249084 0.849506
vt 0.039356 0.208126
vt 0.124186 0.206990
vt 0.132696 0.841988
vt 0.047865 0.843125
vt 0.828586 0.028258
vt 0.881729 0.027376
vt 0.894901 0.986964
vt 0.841757 0.987847
vt 0.671452 0.933689
vt 0.722026 0.917341
vt 0.728263 0.936638
vt 0.677690 0.952986
vt 0.905227 0.028994
vt 0.958374 0.028430
vt 0.971310 0.988021
vt 0.918163 0.988585
vt 0.731144 0.933689
vt 0.781717 0.917341
vt 0.787955 0.936638
vt 0.737381 0.952986
vt 0.784321 0.019361
vt 0.804595 0.018880
vt 0.827380 0.978288
vt 0.807106 0.978770
vt 0.758986 0.030185
vt 0.779260 0.029703
vt 0.802045 0.989111
vt 0.781771 0.989593
vt 0.828586 0.028258
vt 0.881729 0.027376
vt 0.894901 0.986964
vt 0.841757 0.987847
vt 0.671452 0.933689
vt 0.722026 0.917341
vt 0.728263 0.936638
vt 0.677690 0.952986
vt 0.905227 0.028994
vt 0.958374 0.028430
vt 0.971310 0.988021
vt 0.918163 0.988585
vt 0.731144 0.933689
vt 0.781717 0.917341
vt 0.787955 0.936638
vt 0.737381 0.952986
vt 0.784321 0.019361
vt 0.804595 0.018880
vt 0.827380 0.978288
vt 0.807106 0.978770
vt 0.758986 0.030185
vt 0.779260 0.029703
vt 0.802045 0.989111
vt 0.781771 0.989593
vt 0.828586 0.028258
vt 0.881729 0.027376
vt 0.894901 0.986964
vt 0.841757 0.987847
vt 0.671452 0.933689
vt 0.722026 0.917341
vt 0.728263 0.936638
vt 0.677690 0.952986
vt 0.905227 0.028994
vt 0.958374 0.028430
vt 0.971310 0.988021
vt 0.918163 0.988585
vt 0.731144 0.933689
vt 0.781717 0.917341
vt 0.787955 0.936638
vt 0.737381 0.952986
vt 0.784321 0.019361
vt 0.804595 0.018880
vt 0.827380 0.978288
vt 0.807106 0.978770
vt 0.758986 0.030185
vt 0.779260 0.029703
vt 0.802045 0.989111
vt 0.781771 0.989593
vt 0.828586 0.028258
vt 0.881729 0.027376
vt 0.894901 0.986964
vt 0.841757 0.987847
vt 0.671452 0.933689
vt 0.722026 0.917341
vt 0.728263 0.936638
vt 0.677690 0.952986
vt 0.905227 0.028994
vt 0.958374 0.028430
vt 0.971310 0.988021
vt 0.918163 0.988585
vt 0.731144 0.933689
vt 0.781717 0.917341
vt 0.787955 0.936638
vt 0.737381 0.952986
vt 0.784321 0.019361
vt 0.804595 0.018880
vt 0.827380 0.978288
vt 0.807106 0.978770
vt 0.758986 0.030185
vt 0.779260 0.029703
vt 0.802045 0.989111
vt 0.781771 0.989593
vn 0.000000 0.000000 1.000000
vn 0.000000 0.000000 1.000000
vn 0.000000 0.000000 1.000000
vn 0.000000 0.000000 1.000000
vn 0.000000 1.000000 0.000000
vn 0.000000 1.000000 0.000000
vn 0.000000 1.000000 0.000000
vn 0.000000 1.000000 0.000000
vn 0.000000 0.000000 -1.000000
vn 0.000000 0.000000 -1.000000
vn 0.000000 0.000000 -1.000000
vn 0.000000 0.000000 -1.000000
vn 0.000000 -1.000000 0.000000
vn 0.000000 -1.000000 0.000000
vn 0.000000 -1.000000 0.000000
vn 0.000000 -1.000000 0.000000
vn 1.000000 0.000000 0.000000
vn 1.000000 0.000000 0.000000
vn 1.000000 0.000000 0.000000
vn 1.000000 0.000000 0.000000
vn -1.000000 0.000000 0.000000
vn -1.000000 0.000000 0.000000
vn -1.000000 0.000000 0.000000
vn -1.000000 0.000000 0.000000
vn 0.000000 0.000000 1.000000
vn 0.000000 0.000000 1.000000
vn 0.000000 0.000000 1.000000
vn 0.000000 0.000000 1.000000
vn 0.000000 1.000000 0.000000
vn 0.000000 1.000000 0.000000
vn 0.000000 1.000000 0.000000
vn 0.000000 1.000000 0.000000
vn 0.000000 0.000000 -1.000000
vn 0.000000 0.000000 -1.000000
vn 0.000000 0.000000 -1.000000
vn 0.000000 0.000000 -1.000000
vn 0.000000 -1.000000 0.000000
vn 0.000000 -1.000000 0.000000
vn 0.000000 -1.000000 0.000000
vn 0.000000 -1.000000 0.000000
vn 1.000000 0.000000 0.000000
vn 1.000000 0.000000 0.000000
vn 1.000000 0.000000 0.000000
vn 1.000000 0.000000 0.000000
vn -1.000000 0.000000 0.000000
vn -1.000000 0.000000 0.000000
vn -1.000000 0.000000 0.000000
vn -1.000000 0.000000 0.000000
vn 0.000000 0.000000 1.000000
vn 0.000000 0.000000 1.000000
vn 0.000000 0.000000 1.000000
vn 0.000000 0.000000 1.000000
vn -0.999992 0.004131 0.000000
vn -0.999992 0.004131 0.000000
vn -0.999992 0.004131 0.000000
vn -0.999992 0.004131 0.000000
vn 0.000000 0.000000 -1.000000
vn 0.000000 0.000000 -1.000000
vn 0.000000 0.000000 -1.000000
vn 0.000000 0.000000 -1.000000
vn 0.999991 -0.004131 0.000000
vn 0.999991 -0.004131 0.000000
vn 0.999991 -0.004131 0.000000
vn 0.999991 -0.004131 0.000000
vn 0.010754 0.999942 0.000000
vn 0.010754 0.999942 0.000000
vn 0.010754 0.999942 0.000000
vn 0.010754 0.999942 0.000000
vn -0.010754 -0.999942 0.000000
vn -0.010754 -0.999942 0.000000
vn -0.010754 -0.999942 0.000000
vn -0.010754 -0.999942 0.000000
vn -0.000000 0.000000 1.000000
vn -0.000000 0.000000 1.000000
vn -0.000000 0.000000 1.000000
vn -0.000000 0.000000 1.000000
vn -0.999992 0.004131 0.000000
vn -0.999992 0.004131 0.000000
vn -0.999992 0.004131 0.000000
vn -0.999992 0.004131 0.000000
vn 0.000000 0.000000 -1.000000
vn 0.000000 0.000000 -1.000000
vn 0.000000 0.000000 -1.000000
vn 0.000000 0.000000 -1.000000
vn 0.999991 -0.004131 0.000000
vn 0.999991 -0.004131 0.000000
vn 0.999991 -0.004131 0.000000
vn 0.999991 -0.004131 0.000000
vn 0.010754 0.999942 0.000000
vn 0.010754 0.999942 0.000000
vn 0.010754 0.999942 0.000000
vn 0.010754 0.999942 0.000000
vn -0.010754 -0.999942 0.000000
vn -0.010754 -0.999942 0.000000
vn -0.010754 -0.999942 0.000000
vn -0.010754 -0.999942 0.000000
vn -1.000000 0.000000 0.000000
vn -1.000000 0.000000 0.000000
vn -1.000000 0.000000 0.000000
vn -1.000000 0.000000 0.000000
vn 0.000000 1.000000 0.000000
vn 0.000000 1.000000 0.000000
vn 0.000000 1.000000 0.000000
vn 0.000000 1.000000 0.000000
vn 1.000000 0.000000 0.000000
vn 1.000000 0.000000 0.000000
vn 1.000000 0.000000 0.000000
vn 1.000000 0.000000 0.000000
vn 0.000000 -1.000000 0.000000
vn 0.000000 -1.000000 0.000000
vn 0.000000 -1.000000 0.000000
vn 0.000000 -1.000000 0.000000
vn 0.000000 0.000000 1.000000
vn 0.000000 0.000000 1.000000
vn 0.000000 0.000000 1.000000
vn 0.000000 0.000000 1.000000
vn 0.000000 0.000000 -1.000000
vn 0.000000 0.000000 -1.000000
vn 0.000000 0.000000 -1.000000
vn 0.000000 0.000000 -1.000000
vn -0.000000 0.000000 1.000000
vn -0.000000 0.000000 1.000000
vn -0.000000 0.000000 1.000000
vn -0.000000 0.000000 1.000000
vn -0.999992 0.004131 0.000000
vn -0.999992 0.004131 0.000000
vn -0.999992 0.004131 0.000000
vn -0.999992 0.004131 0.000000
vn 0.000000 0.000000 -1.000000
vn 0.000000 0.000000 -1.000000
vn 0.000000 0.000000 -1.000000
vn 0.000000 0.000000 -1.000000
vn 0.999991 -0.004131 0.000000
vn 0.999991 -0.004131 0.000000
vn 0.999991 -0.004131 0.000000
vn 0.999991 -0.004131 0.000000
vn 0.010754 0.999942 0.000000
vn 0.010754 0.999942 0.000000
vn 0.010754 0.999942 0.000000
vn 0.010754 0.999942 0.000000
vn -0.010754 -0.999942 0.000000
vn -0.010754 -0.999942 0.000000
vn -0.010754 -0.999942 0.000000
vn -0.010754 -0.999942 0.000000
vn -1.000000 0.000000 0.000000
vn -1.000000 0.000000 0.000000
vn -1.000000 0.000000 0.000000
vn -1.000000 0.000000 0.000000
vn 0.000000 0.004130 -0.999991
vn 0.000000 0.004130 -0.999991
vn 0.000000 0.004130 -0.999991
vn 0.000000 0.004130 -0.999991
vn 1.000000 0.000002 0.000000
vn 1.000000 0.000002 0.000000
vn 1.000000 0.000002 0.000000
vn 1.000000 0.000002 0.000000
vn 0.000000 -0.004130 0.999992
vn 0.000000 -0.004130 0.999992
vn 0.000000 -0.004130 0.999992
vn 0.000000 -0.004130 0.999992
vn 0.000000 0.999942 0.010754
vn 0.000000 0.999942 0.010754
vn 0.000000 0.999942 0.010754
vn 0.000000 0.999942 0.010754
vn 0.000000 -0.999942 -0.010754
vn 0.000000 -0.999942 -0.010754
vn 0.000000 -0.999942 -0.010754
vn 0.000000 -0.999942 -0.010754
vn -1.000000 0.000000 0.000000
vn -1.000000 0.000000 0.000000
vn -1.000000 0.000000 0.000000
vn -1.000000 0.000000 0.000000
vn 0.000000 0.004130 -0.999991
vn 0.000000 0.004130 -0.999991
vn 0.000000 0.004130 -0.999991
vn 0.000000 0.004130 -0.999991
vn 1.000000 0.000002 0.000000
vn 1.000000 0.000002 0.000000
vn 1.000000 0.000002 0.000000
vn 1.000000 0.000002 0.000000
vn 0.000000 -0.004130 0.999992
vn 0.000000 -0.004130 0.999992
vn 0.000000 -0.004130 0.999992
vn 0.000000 -0.004130 0.999992
vn 0.000000 0.999942 0.010754
vn 0.000000 0.999942 0.010754
vn 0.000000 0.999942 0.010754
vn 0.000000 0.999942 0.010754
vn 0.000000 -0.999942 -0.010754
vn 0.000000 -0.999942 -0.010754
vn 0.000000 -0.999942 -0.010754
vn 0.000000 -0.999942 -0.010754
vn -1.000000 0.000000 0.000000
vn -1.000000 0.000000 0.000000
vn -1.000000 0.000000 0.000000
vn -1.000000 0.000000 0.000000
vn 0.000000 0.004130 -0.999991
vn 0.000000 0.004130 -0.999991
vn 0.000000 0.004130 -0.999991
vn 0.000000 0.004130 -0.999991
vn 1.000000 0.000002 0.000000
vn 1.000000 0.000002 0.000000
vn 1.000000 0.000002 0.000000
vn 1.000000 0.000002 0.000000
vn 0.000000 -0.004130 0.999992
vn 0.000000 -0.004130 0.999992
vn 0.000000 -0.004130 0.999992
vn 0.000000 -0.004130 0.999992
vn 0.000000 0.999942 0.010754
vn 0.000000 0.999942 0.010754
vn 0.000000 0.999942 0.010754
vn 0.000000 0.999942 0.010754
vn 0.000000 -0.999942 -0.010754
vn 0.000000 -0.999942 -0.010754
vn 0.000000 -0.999942 -0.010754
vn 0.000000 -0.999942 -0.010754
s off
g pCube17
usemtl standardSurface2SG
f 1/17/1 2/18/2 4/19/3 3/20/4
f 3/9/5 4/10/6 6/11/7 5/12/8
f 5/21/9 6/22/10 8/23/11 7/24/12
f 7/13/13 8/14/14 2/15/15 1/16/16
f 2/1/17 8/2/18 6/3/19 4/4/20
f 7/5/21 1/6/22 3/7/23 5/8/24
f 9/25/25 10/26/26 12/27/27 11/28/28
f 11/29/29 12/30/30 14/31/31 13/32/32
f 13/33/33 14/34/34 16/35/35 15/36/36
f 15/37/37 16/38/38 10/39/39 9/40/40
f 10/41/41 16/42/42 14/43/43 12/44/44
f 15/45/45 9/46/46 11/47/47 13/48/48
f 17/49/49 18/50/50 20/51/51 19/52/52
f 19/53/53 20/54/54 22/55/55 21/56/56
f 21/57/57 22/58/58 24/59/59 23/60/60
f 23/61/61 24/62/62 18/63/63 17/64/64
f 18/65/65 24/66/66 22/67/67 20/68/68
f 23/69/69 17/70/70 19/71/71 21/72/72
f 25/73/73 26/74/74 28/75/75 27/76/76
f 27/77/77 28/78/78 30/79/79 29/80/80
f 29/81/81 30/82/82 32/83/83 31/84/84
f 31/85/85 32/86/86 26/87/87 25/88/88
f 26/89/89 32/90/90 30/91/91 28/92/92
f 31/93/93 25/94/94 27/95/95 29/96/96
f 33/97/97 34/98/98 36/99/99 35/100/100
f 35/101/101 36/102/102 38/103/103 37/104/104
f 37/105/105 38/106/106 40/107/107 39/108/108
f 39/109/109 40/110/110 34/111/111 33/112/112
f 34/113/113 40/114/114 38/115/115 36/116/116
f 39/117/117 33/118/118 35/119/119 37/120/120
f 41/121/121 42/122/122 44/123/123 43/124/124
f 43/125/125 44/126/126 46/127/127 45/128/128
f 45/129/129 46/130/130 48/131/131 47/132/132
f 47/133/133 48/134/134 42/135/135 41/136/136
f 42/137/137 48/138/138 46/139/139 44/140/140
f 47/141/141 41/142/142 43/143/143 45/144/144
f 49/145/145 50/146/146 52/147/147 51/148/148
f 51/149/149 52/150/150 54/151/151 53/152/152
f 53/153/153 54/154/154 56/155/155 55/156/156
f 55/157/157 56/158/158 50/159/159 49/160/160
f 50/161/161 56/162/162 54/163/163 52/164/164
f 55/165/165 49/166/166 51/167/167 53/168/168
f 57/169/169 58/170/170 60/171/171 59/172/172
f 59/173/173 60/174/174 62/175/175 61/176/176
f 61/177/177 62/178/178 64/179/179 63/180/180
f 63/181/181 64/182/182 58/183/183 57/184/184
f 58/185/185 64/186/186 62/187/187 60/188/188
f 63/189/189 57/190/190 59/191/191 61/192/192
f 65/193/193 66/194/194 68/195/195 67/196/196
f 67/197/197 68/198/198 70/199/199 69/200/200
f 69/201/201 70/202/202 72/203/203 71/204/204
f 71/205/205 72/206/206 66/207/207 65/208/208
f 66/209/209 72/210/210 70/211/211 68/212/212
f 71/213/213 65/214/214 67/215/215 69/216/216
