# This file uses centimeters as units for non-parametric coordinates.

mtllib laterales puerta.mtl
g default
v -17.728487 -1.536471 15.778644
v -15.991072 -1.536471 15.778644
v -17.728487 11.787035 15.778644
v -15.991072 11.787035 15.778644
v -17.728487 11.787035 13.998734
v -15.991072 11.787035 13.998734
v -17.728487 -1.536471 13.998734
v -15.991072 -1.536471 13.998734
v 14.166711 -1.536471 15.778644
v 15.904126 -1.536471 15.778644
v 14.166711 11.787035 15.778644
v 15.904126 11.787035 15.778644
v 14.166711 11.787035 13.998734
v 15.904126 11.787035 13.998734
v 14.166711 -1.536471 13.998734
v 15.904126 -1.536471 13.998734
vt 0.248007 0.214451
vt 0.332845 0.214308
vt 0.333922 0.849362
vt 0.249084 0.849506
vt 0.039356 0.208126
vt 0.124186 0.206990
vt 0.132696 0.841988
vt 0.047865 0.843125
vt 0.119853 0.894953
vt 0.202664 0.895453
vt 0.202152 0.980289
vt 0.119341 0.979789
vt 0.035938 0.894953
vt 0.118749 0.895453
vt 0.118236 0.980289
vt 0.035425 0.979789
vt 0.353561 0.213193
vt 0.436366 0.214340
vt 0.427565 0.849335
vt 0.344760 0.848187
vt 0.152786 0.214843
vt 0.235598 0.214832
vt 0.235680 0.849888
vt 0.152867 0.849898
vt 0.353561 0.213193
vt 0.436366 0.214340
vt 0.427565 0.849335
vt 0.344760 0.848187
vt 0.119853 0.894953
vt 0.202664 0.895453
vt 0.202152 0.980289
vt 0.119341 0.979789
vt 0.152786 0.214843
vt 0.235598 0.214832
vt 0.235680 0.849888
vt 0.152867 0.849898
vt 0.035938 0.894953
vt 0.118749 0.895453
vt 0.118236 0.980289
vt 0.035425 0.979789
vt 0.248007 0.214451
vt 0.332845 0.214308
vt 0.333922 0.849362
vt 0.249084 0.849506
vt 0.039356 0.208126
vt 0.124186 0.206990
vt 0.132696 0.841988
vt 0.047865 0.843125
vn 0.000000 0.000000 1.000000
vn 0.000000 0.000000 1.000000
vn 0.000000 0.000000 1.000000
vn 0.000000 0.000000 1.000000
vn 0.000000 1.000000 0.000000
vn 0.000000 1.000000 0.000000
vn 0.000000 1.000000 0.000000
vn 0.000000 1.000000 0.000000
vn 0.000000 0.000000 -1.000000
vn 0.000000 0.000000 -1.000000
vn 0.000000 0.000000 -1.000000
vn 0.000000 0.000000 -1.000000
vn 0.000000 -1.000000 0.000000
vn 0.000000 -1.000000 0.000000
vn 0.000000 -1.000000 0.000000
vn 0.000000 -1.000000 0.000000
vn 1.000000 0.000000 0.000000
vn 1.000000 0.000000 0.000000
vn 1.000000 0.000000 0.000000
vn 1.000000 0.000000 0.000000
vn -1.000000 0.000000 0.000000
vn -1.000000 0.000000 0.000000
vn -1.000000 0.000000 0.000000
vn -1.000000 0.000000 0.000000
vn 0.000000 0.000000 1.000000
vn 0.000000 0.000000 1.000000
vn 0.000000 0.000000 1.000000
vn 0.000000 0.000000 1.000000
vn 0.000000 1.000000 0.000000
vn 0.000000 1.000000 0.000000
vn 0.000000 1.000000 0.000000
vn 0.000000 1.000000 0.000000
vn 0.000000 0.000000 -1.000000
vn 0.000000 0.000000 -1.000000
vn 0.000000 0.000000 -1.000000
vn 0.000000 0.000000 -1.000000
vn 0.000000 -1.000000 0.000000
vn 0.000000 -1.000000 0.000000
vn 0.000000 -1.000000 0.000000
vn 0.000000 -1.000000 0.000000
vn 1.000000 0.000000 0.000000
vn 1.000000 0.000000 0.000000
vn 1.000000 0.000000 0.000000
vn 1.000000 0.000000 0.000000
vn -1.000000 0.000000 0.000000
vn -1.000000 0.000000 0.000000
vn -1.000000 0.000000 0.000000
vn -1.000000 0.000000 0.000000
s off
g pCube7
usemtl standardSurface2SG
f 1/17/1 2/18/2 4/19/3 3/20/4
f 3/9/5 4/10/6 6/11/7 5/12/8
f 5/21/9 6/22/10 8/23/11 7/24/12
f 7/13/13 8/14/14 2/15/15 1/16/16
f 2/1/17 8/2/18 6/3/19 4/4/20
f 7/5/21 1/6/22 3/7/23 5/8/24
f 9/25/25 10/26/26 12/27/27 11/28/28
f 11/29/29 12/30/30 14/31/31 13/32/32
f 13/33/33 14/34/34 16/35/35 15/36/36
f 15/37/37 16/38/38 10/39/39 9/40/40
f 10/41/41 16/42/42 14/43/43 12/44/44
f 15/45/45 9/46/46 11/47/47 13/48/48
