# This file uses centimeters as units for non-parametric coordinates.

mtllib puerta_der.mtl
g default
v -0.994678 2.031970 14.080221
v -2.732094 2.031970 14.080221
v -0.994678 10.942785 14.080221
v -2.732094 10.700309 14.080221
v -0.994678 10.942785 14.740480
v -2.732094 10.700309 14.740480
v -0.994678 2.031970 14.740480
v -2.732094 2.031970 14.740480
v -16.936228 5.298629 14.718946
v -16.938847 7.160347 14.718946
v -0.969045 5.295977 14.718946
v -0.971664 7.157696 14.718946
v -0.969045 5.295977 15.429314
v -0.971664 7.157696 15.429314
v -16.936228 5.298629 15.429314
v -16.938847 7.160347 15.429314
v -16.936228 8.637423 14.718946
v -16.938847 10.499140 14.718946
v -0.969046 8.634769 14.718946
v -0.971665 10.496489 14.718946
v -0.969046 8.634769 15.429314
v -0.971665 10.496489 15.429314
v -16.936228 8.637423 15.429314
v -16.938847 10.499140 15.429314
v -16.936228 2.538149 14.718946
v -16.938847 4.399868 14.718946
v -0.969045 2.535497 14.718946
v -0.971664 4.397216 14.718946
v -0.969045 2.535497 15.429314
v -0.971664 4.397216 15.429314
v -16.936228 2.538149 15.429314
v -16.938847 4.399868 15.429314
vt 0.248007 0.214451
vt 0.332845 0.214308
vt 0.333922 0.849362
vt 0.249084 0.849506
vt 0.039356 0.208126
vt 0.124186 0.206990
vt 0.132696 0.841988
vt 0.047865 0.843125
vt 0.119853 0.894953
vt 0.202664 0.895453
vt 0.202152 0.980289
vt 0.119341 0.979789
vt 0.035938 0.894953
vt 0.118749 0.895453
vt 0.118236 0.980289
vt 0.035425 0.979789
vt 0.353561 0.213193
vt 0.436366 0.214340
vt 0.427565 0.849335
vt 0.344760 0.848187
vt 0.152786 0.214843
vt 0.235598 0.214832
vt 0.235680 0.849888
vt 0.152867 0.849898
vt 0.828586 0.028258
vt 0.881729 0.027376
vt 0.894901 0.986964
vt 0.841757 0.987847
vt 0.671452 0.933689
vt 0.722026 0.917341
vt 0.728263 0.936638
vt 0.677690 0.952986
vt 0.905227 0.028994
vt 0.958374 0.028430
vt 0.971310 0.988021
vt 0.918163 0.988585
vt 0.731144 0.933689
vt 0.781717 0.917341
vt 0.787955 0.936638
vt 0.737381 0.952986
vt 0.784321 0.019361
vt 0.804595 0.018880
vt 0.827380 0.978288
vt 0.807106 0.978770
vt 0.758986 0.030185
vt 0.779260 0.029703
vt 0.802045 0.989111
vt 0.781771 0.989593
vt 0.828586 0.028258
vt 0.881729 0.027376
vt 0.894901 0.986964
vt 0.841757 0.987847
vt 0.671452 0.933689
vt 0.722026 0.917341
vt 0.728263 0.936638
vt 0.677690 0.952986
vt 0.905227 0.028994
vt 0.958374 0.028430
vt 0.971310 0.988021
vt 0.918163 0.988585
vt 0.731144 0.933689
vt 0.781717 0.917341
vt 0.787955 0.936638
vt 0.737381 0.952986
vt 0.784321 0.019361
vt 0.804595 0.018880
vt 0.827380 0.978288
vt 0.807106 0.978770
vt 0.758986 0.030185
vt 0.779260 0.029703
vt 0.802045 0.989111
vt 0.781771 0.989593
vt 0.828586 0.028258
vt 0.881729 0.027376
vt 0.894901 0.986964
vt 0.841757 0.987847
vt 0.671452 0.933689
vt 0.722026 0.917341
vt 0.728263 0.936638
vt 0.677690 0.952986
vt 0.905227 0.028994
vt 0.958374 0.028430
vt 0.971310 0.988021
vt 0.918163 0.988585
vt 0.731144 0.933689
vt 0.781717 0.917341
vt 0.787955 0.936638
vt 0.737381 0.952986
vt 0.784321 0.019361
vt 0.804595 0.018880
vt 0.827380 0.978288
vt 0.807106 0.978770
vt 0.758986 0.030185
vt 0.779260 0.029703
vt 0.802045 0.989111
vt 0.781771 0.989593
vn 0.000000 0.000000 -1.000000
vn 0.000000 0.000000 -1.000000
vn 0.000000 0.000000 -1.000000
vn 0.000000 0.000000 -1.000000
vn -0.138222 0.990401 0.000000
vn -0.138222 0.990401 0.000000
vn -0.138222 0.990401 0.000000
vn -0.138222 0.990401 0.000000
vn 0.000000 0.000000 1.000000
vn 0.000000 0.000000 1.000000
vn 0.000000 0.000000 1.000000
vn 0.000000 0.000000 1.000000
vn 0.000000 -1.000000 0.000000
vn 0.000000 -1.000000 0.000000
vn 0.000000 -1.000000 0.000000
vn 0.000000 -1.000000 0.000000
vn -1.000000 0.000000 0.000000
vn -1.000000 0.000000 0.000000
vn -1.000000 0.000000 0.000000
vn -1.000000 0.000000 0.000000
vn 1.000000 0.000000 0.000000
vn 1.000000 0.000000 0.000000
vn 1.000000 0.000000 0.000000
vn 1.000000 0.000000 0.000000
vn 0.000000 0.000000 -1.000000
vn 0.000000 0.000000 -1.000000
vn 0.000000 0.000000 -1.000000
vn 0.000000 0.000000 -1.000000
vn 0.999999 0.001407 0.000000
vn 0.999999 0.001407 0.000000
vn 0.999999 0.001407 0.000000
vn 0.999999 0.001407 0.000000
vn -0.000000 0.000000 1.000000
vn -0.000000 0.000000 1.000000
vn -0.000000 0.000000 1.000000
vn -0.000000 0.000000 1.000000
vn -0.999999 -0.001407 0.000000
vn -0.999999 -0.001407 0.000000
vn -0.999999 -0.001407 0.000000
vn -0.999999 -0.001407 0.000000
vn 0.000166 1.000000 0.000000
vn 0.000166 1.000000 0.000000
vn 0.000166 1.000000 0.000000
vn 0.000166 1.000000 0.000000
vn -0.000166 -1.000000 0.000000
vn -0.000166 -1.000000 0.000000
vn -0.000166 -1.000000 0.000000
vn -0.000166 -1.000000 0.000000
vn 0.000000 0.000000 -1.000000
vn 0.000000 0.000000 -1.000000
vn 0.000000 0.000000 -1.000000
vn 0.000000 0.000000 -1.000000
vn 0.999999 0.001407 0.000000
vn 0.999999 0.001407 0.000000
vn 0.999999 0.001407 0.000000
vn 0.999999 0.001407 0.000000
vn 0.000000 0.000000 1.000000
vn 0.000000 0.000000 1.000000
vn 0.000000 0.000000 1.000000
vn 0.000000 0.000000 1.000000
vn -0.999999 -0.001406 0.000000
vn -0.999999 -0.001406 0.000000
vn -0.999999 -0.001406 0.000000
vn -0.999999 -0.001406 0.000000
vn 0.000166 1.000000 0.000000
vn 0.000166 1.000000 0.000000
vn 0.000166 1.000000 0.000000
vn 0.000166 1.000000 0.000000
vn -0.000166 -1.000000 0.000000
vn -0.000166 -1.000000 0.000000
vn -0.000166 -1.000000 0.000000
vn -0.000166 -1.000000 0.000000
vn 0.000000 0.000000 -1.000000
vn 0.000000 0.000000 -1.000000
vn 0.000000 0.000000 -1.000000
vn 0.000000 0.000000 -1.000000
vn 0.999999 0.001407 0.000000
vn 0.999999 0.001407 0.000000
vn 0.999999 0.001407 0.000000
vn 0.999999 0.001407 0.000000
vn -0.000000 0.000000 1.000000
vn -0.000000 0.000000 1.000000
vn -0.000000 0.000000 1.000000
vn -0.000000 0.000000 1.000000
vn -0.999999 -0.001407 0.000000
vn -0.999999 -0.001407 0.000000
vn -0.999999 -0.001407 0.000000
vn -0.999999 -0.001407 0.000000
vn 0.000166 1.000000 0.000000
vn 0.000166 1.000000 0.000000
vn 0.000166 1.000000 0.000000
vn 0.000166 1.000000 0.000000
vn -0.000166 -1.000000 0.000000
vn -0.000166 -1.000000 0.000000
vn -0.000166 -1.000000 0.000000
vn -0.000166 -1.000000 0.000000
s off
g puerta_der
usemtl group2_pCube7SG
f 1/17/1 2/18/2 4/19/3 3/20/4
f 3/9/5 4/10/6 6/11/7 5/12/8
f 5/21/9 6/22/10 8/23/11 7/24/12
f 7/13/13 8/14/14 2/15/15 1/16/16
f 2/1/17 8/2/18 6/3/19 4/4/20
f 7/5/21 1/6/22 3/7/23 5/8/24
f 9/25/25 10/26/26 12/27/27 11/28/28
f 11/29/29 12/30/30 14/31/31 13/32/32
f 13/33/33 14/34/34 16/35/35 15/36/36
f 15/37/37 16/38/38 10/39/39 9/40/40
f 10/41/41 16/42/42 14/43/43 12/44/44
f 15/45/45 9/46/46 11/47/47 13/48/48
f 17/49/49 18/50/50 20/51/51 19/52/52
f 19/53/53 20/54/54 22/55/55 21/56/56
f 21/57/57 22/58/58 24/59/59 23/60/60
f 23/61/61 24/62/62 18/63/63 17/64/64
f 18/65/65 24/66/66 22/67/67 20/68/68
f 23/69/69 17/70/70 19/71/71 21/72/72
f 25/73/73 26/74/74 28/75/75 27/76/76
f 27/77/77 28/78/78 30/79/79 29/80/80
f 29/81/81 30/82/82 32/83/83 31/84/84
f 31/85/85 32/86/86 26/87/87 25/88/88
f 26/89/89 32/90/90 30/91/91 28/92/92
f 31/93/93 25/94/94 27/95/95 29/96/96
